<mxfile host="65bd71144e" scale="0.4" border="10">
    <diagram name="Scraper Overall" id="TifYPGf0waED7cp_q03V">
        <mxGraphModel dx="2156" dy="838" grid="1" gridSize="10" guides="1" tooltips="1" connect="1" arrows="1" fold="1" page="0" pageScale="1" pageWidth="850" pageHeight="1100" background="#ffffff" math="0" shadow="0">
            <root>
                <mxCell id="xGdkJ3lXgkAMVpHLXlX3-0"/>
                <mxCell id="xGdkJ3lXgkAMVpHLXlX3-1" parent="xGdkJ3lXgkAMVpHLXlX3-0"/>
                <mxCell id="5L6MDdhFD6J-Ce2RK4hE-16" value="&lt;font style=&quot;font-size: 28px&quot;&gt;&lt;b&gt;Scraper&lt;/b&gt;&lt;/font&gt;" style="shape=umlFrame;whiteSpace=wrap;html=1;fontSize=24;width=160;height=60;" parent="xGdkJ3lXgkAMVpHLXlX3-1" vertex="1">
                    <mxGeometry x="-760" y="240" width="600" height="600" as="geometry"/>
                </mxCell>
                <mxCell id="5L6MDdhFD6J-Ce2RK4hE-8" value="&lt;font style=&quot;font-size: 24px&quot;&gt;«Boundary»&lt;/font&gt;&lt;br&gt;&lt;font style=&quot;font-size: 28px&quot;&gt;Views&lt;/font&gt;" style="html=1;fontStyle=1" parent="xGdkJ3lXgkAMVpHLXlX3-1" vertex="1">
                    <mxGeometry x="-560" y="280" width="200" height="120" as="geometry"/>
                </mxCell>
                <mxCell id="5L6MDdhFD6J-Ce2RK4hE-9" value="&#10;Worker" style="shape=module;align=left;spacingLeft=20;align=center;verticalAlign=top;fontSize=28;fontStyle=1" parent="xGdkJ3lXgkAMVpHLXlX3-1" vertex="1">
                    <mxGeometry x="-560" y="480" width="200" height="120" as="geometry"/>
                </mxCell>
                <mxCell id="5L6MDdhFD6J-Ce2RK4hE-13" value="Use" style="endArrow=open;endSize=12;dashed=1;html=1;fontSize=24;exitX=0.5;exitY=1;exitDx=0;exitDy=0;entryX=0.5;entryY=0;entryDx=0;entryDy=0;fontStyle=1;strokeWidth=2;" parent="xGdkJ3lXgkAMVpHLXlX3-1" source="5L6MDdhFD6J-Ce2RK4hE-8" target="5L6MDdhFD6J-Ce2RK4hE-9" edge="1">
                    <mxGeometry width="160" relative="1" as="geometry">
                        <mxPoint x="-550" y="660" as="sourcePoint"/>
                        <mxPoint x="-390" y="660" as="targetPoint"/>
                    </mxGeometry>
                </mxCell>
                <mxCell id="1" value="&lt;p style=&quot;margin: 0px ; margin-top: 6px ; text-align: center&quot;&gt;&lt;b&gt;&lt;font style=&quot;font-size: 28px&quot;&gt;Shopping&lt;/font&gt;&lt;/b&gt;&lt;/p&gt;&lt;hr style=&quot;font-size: 20px&quot;&gt;&lt;p style=&quot;margin: 0px 0px 0px 8px ; font-size: 20px&quot;&gt;&lt;font style=&quot;font-size: 20px&quot;&gt;&lt;br&gt;&lt;/font&gt;&lt;/p&gt;&lt;p style=&quot;text-align: center ; margin: 0px 0px 0px 8px&quot;&gt;&lt;font&gt;&lt;font style=&quot;font-size: 24px&quot;&gt;&lt;b&gt;Product&lt;/b&gt;&lt;/font&gt;&lt;br&gt;&lt;/font&gt;&lt;/p&gt;" style="align=left;overflow=fill;html=1;dropTarget=0;" parent="xGdkJ3lXgkAMVpHLXlX3-1" vertex="1">
                    <mxGeometry x="-1120" y="470" width="200" height="140" as="geometry"/>
                </mxCell>
                <mxCell id="2" value="" style="shape=component;jettyWidth=8;jettyHeight=4;" parent="1" vertex="1">
                    <mxGeometry x="1" width="20" height="20" relative="1" as="geometry">
                        <mxPoint x="-24" y="4" as="offset"/>
                    </mxGeometry>
                </mxCell>
                <mxCell id="52_ArqBLTULz51P2Oo4E-2" value="Call" style="endArrow=open;endSize=12;dashed=1;html=1;exitX=1;exitY=0.5;exitDx=0;exitDy=0;fontSize=24;entryX=0.003;entryY=0.5;entryDx=0;entryDy=0;entryPerimeter=0;strokeWidth=2;fontStyle=1" parent="xGdkJ3lXgkAMVpHLXlX3-1" source="1" target="5L6MDdhFD6J-Ce2RK4hE-16" edge="1">
                    <mxGeometry width="160" relative="1" as="geometry">
                        <mxPoint x="-440" y="540" as="sourcePoint"/>
                        <mxPoint x="-860" y="600" as="targetPoint"/>
                    </mxGeometry>
                </mxCell>
            </root>
        </mxGraphModel>
    </diagram>
</mxfile>